<svg width="28" height="28" fill="none" xmlns="http://www.w3.org/2000/svg"><mask id="prefix__a" style="mask-type:alpha" maskUnits="userSpaceOnUse" x="0" y="0" width="28" height="28"><path fill="#D9D9D9" d="M0 0h28v28H0z"/></mask><g mask="url(#prefix__a)"><path fill-rule="evenodd" clip-rule="evenodd" d="M26.198 7.74a13.99 13.99 0 00-.336-.618C22.073.56 13.682-1.688 7.12 2.1.558 5.889-1.69 14.28 2.098 20.842c3.789 6.562 12.18 8.81 18.742 5.022 4.79-2.766 7.281-7.983 6.805-13.15l-4.088 2.36a9.624 9.624 0 01-4.758 7.255C14.19 24.99 8.295 23.41 5.633 18.8A9.638 9.638 0 019.161 5.635a9.638 9.638 0 0113.496 4.15l3.541-2.046z" fill="url(#prefix__paint0_linear_20745_22188)"/><path d="M19.474 11.228a6.037 6.037 0 10-10.456 6.037l5.228-3.018 5.228-3.019z" fill="url(#prefix__paint1_linear_20745_22188)"/></g><defs><linearGradient id="prefix__paint0_linear_20745_22188" x1="1.548" y1="9.278" x2="27.248" y2="18.817" gradientUnits="userSpaceOnUse"><stop stop-color="#9BFF21"/><stop offset="1" stop-color="#1EFD9C"/></linearGradient><linearGradient id="prefix__paint1_linear_20745_22188" x1="11.963" y1="8.595" x2="14.981" y2="13.823" gradientUnits="userSpaceOnUse"><stop stop-color="#1EFD9C"/><stop offset=".86" stop-color="#9BFF21"/></linearGradient></defs></svg>